<?xml version="1.0" encoding="UTF-8" standalone="no"?>
<!DOCTYPE svg PUBLIC "-//W3C//DTD SVG 1.1//EN"
 "http://www.w3.org/Graphics/SVG/1.1/DTD/svg11.dtd">
<!-- Generated by graphviz version 2.38.0 (20140413.2041)
 -->
<!-- Title: %3 Pages: 1 -->
<svg width="364pt" height="1011pt"
 viewBox="0.00 0.00 363.50 1011.00" xmlns="http://www.w3.org/2000/svg" xmlns:xlink="http://www.w3.org/1999/xlink">
<g id="graph0" class="graph" transform="scale(1 1) rotate(0) translate(4 1007)">
<title>%3</title>
<polygon fill="white" stroke="none" points="-4,4 -4,-1007 359.5,-1007 359.5,4 -4,4"/>
<!-- blk0 -->
<g id="node1" class="node"><title>blk0</title>
<polygon fill="none" stroke="black" points="355.5,-1003 120.5,-1003 120.5,-680 355.5,-680 355.5,-1003"/>
<text text-anchor="middle" x="238" y="-987.8" font-family="Times,serif" font-size="14.00">_t5 &lt;&#45; $22 &#45; $11</text>
<text text-anchor="middle" x="238" y="-972.8" font-family="Times,serif" font-size="14.00">_t4 &lt;&#45; _t5 / $1</text>
<text text-anchor="middle" x="238" y="-957.8" font-family="Times,serif" font-size="14.00">_t3 &lt;&#45; _t4 * $44</text>
<text text-anchor="middle" x="238" y="-942.8" font-family="Times,serif" font-size="14.00">_t2 &lt;&#45; $13 + _t3</text>
<text text-anchor="middle" x="238" y="-927.8" font-family="Times,serif" font-size="14.00">call function &lt;&#45; print , _t2</text>
<text text-anchor="middle" x="238" y="-912.8" font-family="Times,serif" font-size="14.00">_t6 &lt;&#45; x = $7</text>
<text text-anchor="middle" x="238" y="-897.8" font-family="Times,serif" font-size="14.00">_t11 &lt;&#45; $10 + x</text>
<text text-anchor="middle" x="238" y="-882.8" font-family="Times,serif" font-size="14.00">_t10 &lt;&#45; _t11 * $2</text>
<text text-anchor="middle" x="238" y="-867.8" font-family="Times,serif" font-size="14.00">_t8 &lt;&#45; y = _t10</text>
<text text-anchor="middle" x="238" y="-852.8" font-family="Times,serif" font-size="14.00">_t15 &lt;&#45; y &#45; x</text>
<text text-anchor="middle" x="238" y="-837.8" font-family="Times,serif" font-size="14.00">_t13 &lt;&#45; z = _t15</text>
<text text-anchor="middle" x="238" y="-822.8" font-family="Times,serif" font-size="14.00">call function &lt;&#45; print , x</text>
<text text-anchor="middle" x="238" y="-807.8" font-family="Times,serif" font-size="14.00">call function &lt;&#45; print , y</text>
<text text-anchor="middle" x="238" y="-792.8" font-family="Times,serif" font-size="14.00">call function &lt;&#45; print , z</text>
<text text-anchor="middle" x="238" y="-777.8" font-family="Times,serif" font-size="14.00">call function &lt;&#45; print , $enter a number:</text>
<text text-anchor="middle" x="238" y="-762.8" font-family="Times,serif" font-size="14.00">call function &lt;&#45; io.read , $*number</text>
<text text-anchor="middle" x="238" y="-747.8" font-family="Times,serif" font-size="14.00">_t29 &lt;&#45; n = call function</text>
<text text-anchor="middle" x="238" y="-732.8" font-family="Times,serif" font-size="14.00">_t34 &lt;&#45; factorial = $1</text>
<text text-anchor="middle" x="238" y="-717.8" font-family="Times,serif" font-size="14.00">_t36 &lt;&#45; x = $1</text>
<text text-anchor="middle" x="238" y="-702.8" font-family="Times,serif" font-size="14.00">cond &lt;&#45; $2 , n</text>
<text text-anchor="middle" x="238" y="-687.8" font-family="Times,serif" font-size="14.00">for &lt;&#45; cond , do</text>
</g>
<!-- blk1 -->
<g id="node2" class="node"><title>blk1</title>
<polygon fill="none" stroke="black" points="291.5,-629 184.5,-629 184.5,-576 291.5,-576 291.5,-629"/>
<text text-anchor="middle" x="238" y="-613.8" font-family="Times,serif" font-size="14.00">cond &lt;&#45; $2 , n</text>
<text text-anchor="middle" x="238" y="-598.8" font-family="Times,serif" font-size="14.00">_t42 &lt;&#45; x * i</text>
<text text-anchor="middle" x="238" y="-583.8" font-family="Times,serif" font-size="14.00">_t40 &lt;&#45; x = _t42</text>
</g>
<!-- blk0&#45;&gt;blk1 -->
<g id="edge1" class="edge"><title>blk0&#45;&gt;blk1</title>
<path fill="none" stroke="black" d="M238,-679.793C238,-664.877 238,-650.987 238,-639.257"/>
<polygon fill="black" stroke="black" points="241.5,-639.124 238,-629.124 234.5,-639.124 241.5,-639.124"/>
<text text-anchor="middle" x="249" y="-650.8" font-family="Times,serif" font-size="14.00">true</text>
</g>
<!-- blk1&#45;&gt;blk1 -->
<g id="edge2" class="edge"><title>blk1&#45;&gt;blk1</title>
<path fill="none" stroke="black" d="M291.632,-611.816C302.08,-610.734 309.5,-607.629 309.5,-602.5 309.5,-599.214 306.455,-596.759 301.519,-595.134"/>
<polygon fill="black" stroke="black" points="302.121,-591.685 291.632,-593.184 300.766,-598.553 302.121,-591.685"/>
<text text-anchor="middle" x="320.5" y="-598.8" font-family="Times,serif" font-size="14.00">true</text>
</g>
<!-- blk2 -->
<g id="node3" class="node"><title>blk2</title>
<polygon fill="none" stroke="black" points="355.5,-525 120.5,-525 120.5,-382 355.5,-382 355.5,-525"/>
<text text-anchor="middle" x="238" y="-509.8" font-family="Times,serif" font-size="14.00">call function &lt;&#45; io.write , $factorial of </text>
<text text-anchor="middle" x="238" y="-494.8" font-family="Times,serif" font-size="14.00">call function &lt;&#45; io.write , n</text>
<text text-anchor="middle" x="238" y="-479.8" font-family="Times,serif" font-size="14.00">call function &lt;&#45; io.write , $ is </text>
<text text-anchor="middle" x="238" y="-464.8" font-family="Times,serif" font-size="14.00">call function &lt;&#45; print , x</text>
<text text-anchor="middle" x="238" y="-449.8" font-family="Times,serif" font-size="14.00">call function &lt;&#45; print , $enter a number:</text>
<text text-anchor="middle" x="238" y="-434.8" font-family="Times,serif" font-size="14.00">call function &lt;&#45; io.read , $*number</text>
<text text-anchor="middle" x="238" y="-419.8" font-family="Times,serif" font-size="14.00">_t60 &lt;&#45; n = call function</text>
<text text-anchor="middle" x="238" y="-404.8" font-family="Times,serif" font-size="14.00">cond &lt;&#45; $2 , n</text>
<text text-anchor="middle" x="238" y="-389.8" font-family="Times,serif" font-size="14.00">for &lt;&#45; cond , do</text>
</g>
<!-- blk1&#45;&gt;blk2 -->
<g id="edge3" class="edge"><title>blk1&#45;&gt;blk2</title>
<path fill="none" stroke="black" d="M238,-575.895C238,-564.399 238,-550.135 238,-535.47"/>
<polygon fill="black" stroke="black" points="241.5,-535.282 238,-525.282 234.5,-535.282 241.5,-535.282"/>
<text text-anchor="middle" x="251" y="-546.8" font-family="Times,serif" font-size="14.00">false</text>
</g>
<!-- blk3 -->
<g id="node4" class="node"><title>blk3</title>
<polygon fill="none" stroke="black" points="290,-331 186,-331 186,-278 290,-278 290,-331"/>
<text text-anchor="middle" x="238" y="-315.8" font-family="Times,serif" font-size="14.00">cond &lt;&#45; $2 , n</text>
<text text-anchor="middle" x="238" y="-300.8" font-family="Times,serif" font-size="14.00">_t67 &lt;&#45; &#160;? $0</text>
<text text-anchor="middle" x="238" y="-285.8" font-family="Times,serif" font-size="14.00">if &lt;&#45; _t67 , then</text>
</g>
<!-- blk2&#45;&gt;blk3 -->
<g id="edge4" class="edge"><title>blk2&#45;&gt;blk3</title>
<path fill="none" stroke="black" d="M238,-381.584C238,-367.614 238,-353.521 238,-341.324"/>
<polygon fill="black" stroke="black" points="241.5,-341.145 238,-331.145 234.5,-341.145 241.5,-341.145"/>
<text text-anchor="middle" x="249" y="-352.8" font-family="Times,serif" font-size="14.00">true</text>
</g>
<!-- blk5 -->
<g id="node5" class="node"><title>blk5</title>
<polygon fill="none" stroke="black" points="242,-227 0,-227 0,-174 242,-174 242,-227"/>
<text text-anchor="middle" x="121" y="-211.8" font-family="Times,serif" font-size="14.00">call function &lt;&#45; io.write , i</text>
<text text-anchor="middle" x="121" y="-196.8" font-family="Times,serif" font-size="14.00">call function &lt;&#45; io.write , $ is a factor of </text>
<text text-anchor="middle" x="121" y="-181.8" font-family="Times,serif" font-size="14.00">call function &lt;&#45; print , n</text>
</g>
<!-- blk3&#45;&gt;blk5 -->
<g id="edge5" class="edge"><title>blk3&#45;&gt;blk5</title>
<path fill="none" stroke="black" d="M208.476,-277.761C193.234,-264.473 174.481,-248.124 158.252,-233.976"/>
<polygon fill="black" stroke="black" points="160.352,-231.164 150.515,-227.231 155.752,-236.44 160.352,-231.164"/>
<text text-anchor="middle" x="198" y="-248.8" font-family="Times,serif" font-size="14.00">true</text>
</g>
<!-- blk8 -->
<g id="node6" class="node"><title>blk8</title>
<polygon fill="none" stroke="black" points="256,-123 202,-123 202,-87 256,-87 256,-123"/>
</g>
<!-- blk3&#45;&gt;blk8 -->
<g id="edge6" class="edge"><title>blk3&#45;&gt;blk8</title>
<path fill="none" stroke="black" d="M244.49,-277.591C250.147,-251.37 256.633,-209.711 251,-174 248.81,-160.116 244.25,-145.204 239.847,-132.893"/>
<polygon fill="black" stroke="black" points="243.02,-131.385 236.24,-123.243 236.463,-133.835 243.02,-131.385"/>
<text text-anchor="middle" x="266" y="-196.8" font-family="Times,serif" font-size="14.00">false</text>
</g>
<!-- blk5&#45;&gt;blk8 -->
<g id="edge7" class="edge"><title>blk5&#45;&gt;blk8</title>
<path fill="none" stroke="black" d="M150.511,-173.951C166.36,-160.23 185.78,-143.418 201.337,-129.949"/>
<polygon fill="black" stroke="black" points="203.812,-132.436 209.081,-123.245 199.23,-127.144 203.812,-132.436"/>
<text text-anchor="middle" x="199" y="-144.8" font-family="Times,serif" font-size="14.00">true</text>
</g>
<!-- blk8&#45;&gt;blk8 -->
<g id="edge8" class="edge"><title>blk8&#45;&gt;blk8</title>
<path fill="none" stroke="black" d="M256.241,-108.934C266.024,-109.018 274,-107.707 274,-105 274,-103.35 271.038,-102.219 266.51,-101.606"/>
<polygon fill="black" stroke="black" points="266.411,-98.0962 256.241,-101.066 266.043,-105.087 266.411,-98.0962"/>
<text text-anchor="middle" x="285" y="-101.3" font-family="Times,serif" font-size="14.00">true</text>
</g>
<!-- blk8&#45;&gt;blk8 -->
<g id="edge10" class="edge"><title>blk8&#45;&gt;blk8</title>
<path fill="none" stroke="black" d="M256.285,-112.067C275.953,-114.287 296,-111.932 296,-105 296,-99.2597 282.252,-96.6576 266.356,-97.1937"/>
<polygon fill="black" stroke="black" points="266.002,-93.7102 256.285,-97.933 266.515,-100.691 266.002,-93.7102"/>
<text text-anchor="middle" x="307" y="-101.3" font-family="Times,serif" font-size="14.00">true</text>
</g>
<!-- blk4 -->
<g id="node7" class="node"><title>blk4</title>
<polygon fill="none" stroke="black" points="256,-36 202,-36 202,-0 256,-0 256,-36"/>
</g>
<!-- blk8&#45;&gt;blk4 -->
<g id="edge9" class="edge"><title>blk8&#45;&gt;blk4</title>
<path fill="none" stroke="black" d="M214.895,-86.8442C211.275,-81.4564 207.876,-75.2693 206,-69 203.586,-60.9301 205.562,-52.4889 209.191,-44.8891"/>
<polygon fill="black" stroke="black" points="212.285,-46.5285 214.253,-36.1178 206.223,-43.0295 212.285,-46.5285"/>
<text text-anchor="middle" x="219" y="-57.8" font-family="Times,serif" font-size="14.00">false</text>
</g>
<!-- blk8&#45;&gt;blk4 -->
<g id="edge11" class="edge"><title>blk8&#45;&gt;blk4</title>
<path fill="none" stroke="black" d="M230.758,-86.929C231.265,-81.2336 231.75,-74.8494 232,-69 232.315,-61.6449 232.093,-53.6865 231.656,-46.3282"/>
<polygon fill="black" stroke="black" points="235.128,-45.8303 230.897,-36.1169 228.148,-46.3487 235.128,-45.8303"/>
<text text-anchor="middle" x="246" y="-57.8" font-family="Times,serif" font-size="14.00">false</text>
</g>
</g>
</svg>
