<?xml version="1.0" encoding="UTF-8" standalone="no"?>
<!DOCTYPE svg PUBLIC "-//W3C//DTD SVG 1.1//EN"
 "http://www.w3.org/Graphics/SVG/1.1/DTD/svg11.dtd">
<!-- Generated by graphviz version 2.38.0 (20140413.2041)
 -->
<!-- Title: %3 Pages: 1 -->
<svg width="324pt" height="692pt"
 viewBox="0.00 0.00 323.69 692.00" xmlns="http://www.w3.org/2000/svg" xmlns:xlink="http://www.w3.org/1999/xlink">
<g id="graph0" class="graph" transform="scale(1 1) rotate(0) translate(4 688)">
<title>%3</title>
<polygon fill="white" stroke="none" points="-4,4 -4,-688 319.691,-688 319.691,4 -4,4"/>
<!-- 15 -->
<g id="node1" class="node"><title>15</title>
<ellipse fill="none" stroke="black" cx="156.345" cy="-666" rx="30.5947" ry="18"/>
<text text-anchor="middle" x="156.345" y="-662.3" font-family="Times,serif" font-size="14.00">stmt_</text>
</g>
<!-- 13 -->
<g id="node2" class="node"><title>13</title>
<ellipse fill="none" stroke="black" cx="156.345" cy="-594" rx="57.3905" ry="18"/>
<text text-anchor="middle" x="156.345" y="-590.3" font-family="Times,serif" font-size="14.00">functioncall_</text>
</g>
<!-- 15&#45;&gt;13 -->
<g id="edge1" class="edge"><title>15&#45;&gt;13</title>
<path fill="none" stroke="black" d="M156.345,-647.697C156.345,-639.983 156.345,-630.712 156.345,-622.112"/>
<polygon fill="black" stroke="black" points="159.846,-622.104 156.345,-612.104 152.846,-622.104 159.846,-622.104"/>
</g>
<!-- 1 -->
<g id="node3" class="node"><title>1</title>
<ellipse fill="none" stroke="black" cx="156.345" cy="-522" rx="51.1914" ry="18"/>
<text text-anchor="middle" x="156.345" y="-518.3" font-family="Times,serif" font-size="14.00">name_print</text>
</g>
<!-- 13&#45;&gt;1 -->
<g id="edge2" class="edge"><title>13&#45;&gt;1</title>
<path fill="none" stroke="black" d="M156.345,-575.697C156.345,-567.983 156.345,-558.712 156.345,-550.112"/>
<polygon fill="black" stroke="black" points="159.846,-550.104 156.345,-540.104 152.846,-550.104 159.846,-550.104"/>
</g>
<!-- 12 -->
<g id="node4" class="node"><title>12</title>
<ellipse fill="none" stroke="black" cx="156.345" cy="-450" rx="29.795" ry="18"/>
<text text-anchor="middle" x="156.345" y="-446.3" font-family="Times,serif" font-size="14.00">args_</text>
</g>
<!-- 1&#45;&gt;12 -->
<g id="edge3" class="edge"><title>1&#45;&gt;12</title>
<path fill="none" stroke="black" d="M156.345,-503.697C156.345,-495.983 156.345,-486.712 156.345,-478.112"/>
<polygon fill="black" stroke="black" points="159.846,-478.104 156.345,-468.104 152.846,-478.104 159.846,-478.104"/>
</g>
<!-- 11 -->
<g id="node5" class="node"><title>11</title>
<ellipse fill="none" stroke="black" cx="156.345" cy="-378" rx="40.0939" ry="18"/>
<text text-anchor="middle" x="156.345" y="-374.3" font-family="Times,serif" font-size="14.00">binop_+</text>
</g>
<!-- 12&#45;&gt;11 -->
<g id="edge4" class="edge"><title>12&#45;&gt;11</title>
<path fill="none" stroke="black" d="M156.345,-431.697C156.345,-423.983 156.345,-414.712 156.345,-406.112"/>
<polygon fill="black" stroke="black" points="159.846,-406.104 156.345,-396.104 152.846,-406.104 159.846,-406.104"/>
</g>
<!-- 2 -->
<g id="node6" class="node"><title>2</title>
<ellipse fill="none" stroke="black" cx="102.345" cy="-306" rx="51.1914" ry="18"/>
<text text-anchor="middle" x="102.345" y="-302.3" font-family="Times,serif" font-size="14.00">number_13</text>
</g>
<!-- 11&#45;&gt;2 -->
<g id="edge5" class="edge"><title>11&#45;&gt;2</title>
<path fill="none" stroke="black" d="M143.821,-360.765C137.17,-352.143 128.855,-341.365 121.42,-331.727"/>
<polygon fill="black" stroke="black" points="124.056,-329.413 115.177,-323.633 118.514,-333.689 124.056,-329.413"/>
</g>
<!-- 10 -->
<g id="node7" class="node"><title>10</title>
<ellipse fill="none" stroke="black" cx="211.345" cy="-306" rx="39.7935" ry="18"/>
<text text-anchor="middle" x="211.345" y="-302.3" font-family="Times,serif" font-size="14.00">binop_*</text>
</g>
<!-- 11&#45;&gt;10 -->
<g id="edge6" class="edge"><title>11&#45;&gt;10</title>
<path fill="none" stroke="black" d="M169.102,-360.765C176.043,-351.93 184.765,-340.83 192.478,-331.014"/>
<polygon fill="black" stroke="black" points="195.232,-333.173 198.658,-323.147 189.728,-328.848 195.232,-333.173"/>
</g>
<!-- 8 -->
<g id="node8" class="node"><title>8</title>
<ellipse fill="none" stroke="black" cx="157.345" cy="-234" rx="37.8943" ry="18"/>
<text text-anchor="middle" x="157.345" y="-230.3" font-family="Times,serif" font-size="14.00">binop_/</text>
</g>
<!-- 10&#45;&gt;8 -->
<g id="edge7" class="edge"><title>10&#45;&gt;8</title>
<path fill="none" stroke="black" d="M198.821,-288.765C192.074,-280.018 183.614,-269.052 176.098,-259.308"/>
<polygon fill="black" stroke="black" points="178.681,-256.927 169.802,-251.147 173.139,-261.203 178.681,-256.927"/>
</g>
<!-- 9 -->
<g id="node14" class="node"><title>9</title>
<ellipse fill="none" stroke="black" cx="264.345" cy="-234" rx="51.1914" ry="18"/>
<text text-anchor="middle" x="264.345" y="-230.3" font-family="Times,serif" font-size="14.00">number_44</text>
</g>
<!-- 10&#45;&gt;9 -->
<g id="edge13" class="edge"><title>10&#45;&gt;9</title>
<path fill="none" stroke="black" d="M223.638,-288.765C230.166,-280.143 238.326,-269.365 245.624,-259.727"/>
<polygon fill="black" stroke="black" points="248.506,-261.719 251.752,-251.633 242.925,-257.493 248.506,-261.719"/>
</g>
<!-- 6 -->
<g id="node9" class="node"><title>6</title>
<ellipse fill="none" stroke="black" cx="111.345" cy="-162" rx="27.8951" ry="18"/>
<text text-anchor="middle" x="111.345" y="-158.3" font-family="Times,serif" font-size="14.00">exp_</text>
</g>
<!-- 8&#45;&gt;6 -->
<g id="edge8" class="edge"><title>8&#45;&gt;6</title>
<path fill="none" stroke="black" d="M146.444,-216.411C140.749,-207.744 133.669,-196.971 127.364,-187.375"/>
<polygon fill="black" stroke="black" points="130.269,-185.423 121.852,-178.988 124.419,-189.267 130.269,-185.423"/>
</g>
<!-- 7 -->
<g id="node13" class="node"><title>7</title>
<ellipse fill="none" stroke="black" cx="204.345" cy="-162" rx="46.5926" ry="18"/>
<text text-anchor="middle" x="204.345" y="-158.3" font-family="Times,serif" font-size="14.00">number_1</text>
</g>
<!-- 8&#45;&gt;7 -->
<g id="edge12" class="edge"><title>8&#45;&gt;7</title>
<path fill="none" stroke="black" d="M168.246,-216.765C173.977,-208.23 181.126,-197.582 187.547,-188.019"/>
<polygon fill="black" stroke="black" points="190.509,-189.887 193.177,-179.633 184.697,-185.985 190.509,-189.887"/>
</g>
<!-- 5 -->
<g id="node10" class="node"><title>5</title>
<ellipse fill="none" stroke="black" cx="111.345" cy="-90" rx="38.1938" ry="18"/>
<text text-anchor="middle" x="111.345" y="-86.3" font-family="Times,serif" font-size="14.00">binop_&#45;</text>
</g>
<!-- 6&#45;&gt;5 -->
<g id="edge9" class="edge"><title>6&#45;&gt;5</title>
<path fill="none" stroke="black" d="M111.345,-143.697C111.345,-135.983 111.345,-126.712 111.345,-118.112"/>
<polygon fill="black" stroke="black" points="114.846,-118.104 111.345,-108.104 107.846,-118.104 114.846,-118.104"/>
</g>
<!-- 3 -->
<g id="node11" class="node"><title>3</title>
<ellipse fill="none" stroke="black" cx="51.3454" cy="-18" rx="51.1914" ry="18"/>
<text text-anchor="middle" x="51.3454" y="-14.3" font-family="Times,serif" font-size="14.00">number_22</text>
</g>
<!-- 5&#45;&gt;3 -->
<g id="edge10" class="edge"><title>5&#45;&gt;3</title>
<path fill="none" stroke="black" d="M97.7305,-73.1159C90.2752,-64.4181 80.8725,-53.4483 72.4849,-43.6627"/>
<polygon fill="black" stroke="black" points="74.9085,-41.1122 65.7432,-35.7973 69.5937,-45.6677 74.9085,-41.1122"/>
</g>
<!-- 4 -->
<g id="node12" class="node"><title>4</title>
<ellipse fill="none" stroke="black" cx="172.345" cy="-18" rx="51.1914" ry="18"/>
<text text-anchor="middle" x="172.345" y="-14.3" font-family="Times,serif" font-size="14.00">number_11</text>
</g>
<!-- 5&#45;&gt;4 -->
<g id="edge11" class="edge"><title>5&#45;&gt;4</title>
<path fill="none" stroke="black" d="M125.187,-73.1159C132.954,-64.2038 142.798,-52.9063 151.482,-42.9417"/>
<polygon fill="black" stroke="black" points="154.204,-45.1456 158.135,-35.307 148.927,-40.5467 154.204,-45.1456"/>
</g>
</g>
</svg>
