<?xml version="1.0" encoding="UTF-8" standalone="no"?>
<!DOCTYPE svg PUBLIC "-//W3C//DTD SVG 1.1//EN"
 "http://www.w3.org/Graphics/SVG/1.1/DTD/svg11.dtd">
<!-- Generated by graphviz version 2.38.0 (20140413.2041)
 -->
<!-- Title: %3 Pages: 1 -->
<svg width="259pt" height="877pt"
 viewBox="0.00 0.00 258.50 877.00" xmlns="http://www.w3.org/2000/svg" xmlns:xlink="http://www.w3.org/1999/xlink">
<g id="graph0" class="graph" transform="scale(1 1) rotate(0) translate(4 873)">
<title>%3</title>
<polygon fill="white" stroke="none" points="-4,4 -4,-873 254.5,-873 254.5,4 -4,4"/>
<!-- blk0 -->
<g id="node1" class="node"><title>blk0</title>
<polygon fill="none" stroke="black" points="235,-869 0,-869 0,-561 235,-561 235,-869"/>
<text text-anchor="middle" x="117.5" y="-853.8" font-family="Times,serif" font-size="14.00">_t5 &lt;&#45; $22 &#45; $11</text>
<text text-anchor="middle" x="117.5" y="-838.8" font-family="Times,serif" font-size="14.00">_t4 &lt;&#45; _t5 / $1</text>
<text text-anchor="middle" x="117.5" y="-823.8" font-family="Times,serif" font-size="14.00">_t3 &lt;&#45; _t4 * $44</text>
<text text-anchor="middle" x="117.5" y="-808.8" font-family="Times,serif" font-size="14.00">_t2 &lt;&#45; $13 + _t3</text>
<text text-anchor="middle" x="117.5" y="-793.8" font-family="Times,serif" font-size="14.00">call function &lt;&#45; print , _t2</text>
<text text-anchor="middle" x="117.5" y="-778.8" font-family="Times,serif" font-size="14.00">_t6 &lt;&#45; x = $7</text>
<text text-anchor="middle" x="117.5" y="-763.8" font-family="Times,serif" font-size="14.00">_t11 &lt;&#45; $10 + x</text>
<text text-anchor="middle" x="117.5" y="-748.8" font-family="Times,serif" font-size="14.00">_t10 &lt;&#45; _t11 * $2</text>
<text text-anchor="middle" x="117.5" y="-733.8" font-family="Times,serif" font-size="14.00">_t8 &lt;&#45; y = _t10</text>
<text text-anchor="middle" x="117.5" y="-718.8" font-family="Times,serif" font-size="14.00">_t15 &lt;&#45; y &#45; x</text>
<text text-anchor="middle" x="117.5" y="-703.8" font-family="Times,serif" font-size="14.00">_t13 &lt;&#45; z = _t15</text>
<text text-anchor="middle" x="117.5" y="-688.8" font-family="Times,serif" font-size="14.00">call function &lt;&#45; print , x</text>
<text text-anchor="middle" x="117.5" y="-673.8" font-family="Times,serif" font-size="14.00">call function &lt;&#45; print , y</text>
<text text-anchor="middle" x="117.5" y="-658.8" font-family="Times,serif" font-size="14.00">call function &lt;&#45; print , z</text>
<text text-anchor="middle" x="117.5" y="-643.8" font-family="Times,serif" font-size="14.00">call function &lt;&#45; print , $enter a number:</text>
<text text-anchor="middle" x="117.5" y="-628.8" font-family="Times,serif" font-size="14.00">call function &lt;&#45; io.read , $*number</text>
<text text-anchor="middle" x="117.5" y="-613.8" font-family="Times,serif" font-size="14.00">_t29 &lt;&#45; n = call function</text>
<text text-anchor="middle" x="117.5" y="-598.8" font-family="Times,serif" font-size="14.00">_t34 &lt;&#45; factorial = $1</text>
<text text-anchor="middle" x="117.5" y="-583.8" font-family="Times,serif" font-size="14.00">_t36 &lt;&#45; x = $1</text>
<text text-anchor="middle" x="117.5" y="-568.8" font-family="Times,serif" font-size="14.00">cond &lt;&#45; $2 , n</text>
</g>
<!-- blk1 -->
<g id="node2" class="node"><title>blk1</title>
<polygon fill="none" stroke="black" points="171,-510 64,-510 64,-457 171,-457 171,-510"/>
<text text-anchor="middle" x="117.5" y="-494.8" font-family="Times,serif" font-size="14.00">cond &lt;&#45; $2 , n</text>
<text text-anchor="middle" x="117.5" y="-479.8" font-family="Times,serif" font-size="14.00">_t42 &lt;&#45; x * i</text>
<text text-anchor="middle" x="117.5" y="-464.8" font-family="Times,serif" font-size="14.00">_t40 &lt;&#45; x = _t42</text>
</g>
<!-- blk0&#45;&gt;blk1 -->
<g id="edge1" class="edge"><title>blk0&#45;&gt;blk1</title>
<path fill="none" stroke="black" d="M117.5,-560.92C117.5,-546.064 117.5,-532.175 117.5,-520.422"/>
<polygon fill="black" stroke="black" points="121,-520.262 117.5,-510.262 114,-520.262 121,-520.262"/>
<text text-anchor="middle" x="128.5" y="-531.8" font-family="Times,serif" font-size="14.00">true</text>
</g>
<!-- blk1&#45;&gt;blk1 -->
<g id="edge2" class="edge"><title>blk1&#45;&gt;blk1</title>
<path fill="none" stroke="black" d="M171.132,-492.816C181.58,-491.734 189,-488.629 189,-483.5 189,-480.214 185.955,-477.759 181.019,-476.134"/>
<polygon fill="black" stroke="black" points="181.621,-472.685 171.132,-474.184 180.266,-479.553 181.621,-472.685"/>
<text text-anchor="middle" x="200" y="-479.8" font-family="Times,serif" font-size="14.00">true</text>
</g>
<!-- blk2 -->
<g id="node3" class="node"><title>blk2</title>
<polygon fill="none" stroke="black" points="235,-406 0,-406 0,-278 235,-278 235,-406"/>
<text text-anchor="middle" x="117.5" y="-390.8" font-family="Times,serif" font-size="14.00">call function &lt;&#45; io.write , $factorial of </text>
<text text-anchor="middle" x="117.5" y="-375.8" font-family="Times,serif" font-size="14.00">call function &lt;&#45; io.write , n</text>
<text text-anchor="middle" x="117.5" y="-360.8" font-family="Times,serif" font-size="14.00">call function &lt;&#45; io.write , $ is </text>
<text text-anchor="middle" x="117.5" y="-345.8" font-family="Times,serif" font-size="14.00">call function &lt;&#45; print , x</text>
<text text-anchor="middle" x="117.5" y="-330.8" font-family="Times,serif" font-size="14.00">call function &lt;&#45; print , $enter a number:</text>
<text text-anchor="middle" x="117.5" y="-315.8" font-family="Times,serif" font-size="14.00">call function &lt;&#45; io.read , $*number</text>
<text text-anchor="middle" x="117.5" y="-300.8" font-family="Times,serif" font-size="14.00">_t60 &lt;&#45; n = call function</text>
<text text-anchor="middle" x="117.5" y="-285.8" font-family="Times,serif" font-size="14.00">cond &lt;&#45; $2 , n</text>
</g>
<!-- blk1&#45;&gt;blk2 -->
<g id="edge3" class="edge"><title>blk1&#45;&gt;blk2</title>
<path fill="none" stroke="black" d="M117.5,-456.914C117.5,-445.282 117.5,-430.867 117.5,-416.247"/>
<polygon fill="black" stroke="black" points="121,-416.124 117.5,-406.124 114,-416.124 121,-416.124"/>
<text text-anchor="middle" x="130.5" y="-427.8" font-family="Times,serif" font-size="14.00">false</text>
</g>
<!-- blk3 -->
<g id="node4" class="node"><title>blk3</title>
<polygon fill="none" stroke="black" points="165,-227 70,-227 70,-191 165,-191 165,-227"/>
<text text-anchor="middle" x="117.5" y="-205.3" font-family="Times,serif" font-size="14.00">cond &lt;&#45; $2 , n</text>
</g>
<!-- blk2&#45;&gt;blk3 -->
<g id="edge4" class="edge"><title>blk2&#45;&gt;blk3</title>
<path fill="none" stroke="black" d="M117.5,-277.802C117.5,-263.476 117.5,-249.002 117.5,-237.127"/>
<polygon fill="black" stroke="black" points="121,-237.031 117.5,-227.031 114,-237.032 121,-237.031"/>
<text text-anchor="middle" x="128.5" y="-248.8" font-family="Times,serif" font-size="14.00">true</text>
</g>
<!-- blk5 -->
<g id="node5" class="node"><title>blk5</title>
<polygon fill="none" stroke="black" points="122.5,-140 34.5,-140 34.5,-104 122.5,-104 122.5,-140"/>
<text text-anchor="middle" x="78.5" y="-118.3" font-family="Times,serif" font-size="14.00">_t67 &lt;&#45; &#160;? $0</text>
</g>
<!-- blk3&#45;&gt;blk5 -->
<g id="edge5" class="edge"><title>blk3&#45;&gt;blk5</title>
<path fill="none" stroke="black" d="M88.0623,-190.714C82.1844,-185.785 76.8076,-179.857 73.5,-173 70.1648,-166.085 69.7134,-158.016 70.5572,-150.404"/>
<polygon fill="black" stroke="black" points="74.0204,-150.921 72.3616,-140.457 67.1328,-149.671 74.0204,-150.921"/>
<text text-anchor="middle" x="84.5" y="-161.8" font-family="Times,serif" font-size="14.00">true</text>
</g>
<!-- blk5&#45;&gt;blk3 -->
<g id="edge7" class="edge"><title>blk5&#45;&gt;blk3</title>
<path fill="none" stroke="black" d="M86.93,-140.029C89.7056,-145.721 92.777,-152.114 95.5,-158 99.0279,-165.625 102.749,-173.961 106.107,-181.602"/>
<polygon fill="black" stroke="black" points="102.915,-183.04 110.124,-190.804 109.33,-180.239 102.915,-183.04"/>
<text text-anchor="middle" x="114.5" y="-161.8" font-family="Times,serif" font-size="14.00">false</text>
</g>
<!-- blk6 -->
<g id="node6" class="node"><title>blk6</title>
<polygon fill="none" stroke="black" points="250.5,-53 8.5,-53 8.5,-0 250.5,-0 250.5,-53"/>
<text text-anchor="middle" x="129.5" y="-37.8" font-family="Times,serif" font-size="14.00">call function &lt;&#45; io.write , i</text>
<text text-anchor="middle" x="129.5" y="-22.8" font-family="Times,serif" font-size="14.00">call function &lt;&#45; io.write , $ is a factor of </text>
<text text-anchor="middle" x="129.5" y="-7.8" font-family="Times,serif" font-size="14.00">call function &lt;&#45; print , n</text>
</g>
<!-- blk5&#45;&gt;blk6 -->
<g id="edge6" class="edge"><title>blk5&#45;&gt;blk6</title>
<path fill="none" stroke="black" d="M87.8542,-103.851C94.2233,-92.174 102.875,-76.3121 110.643,-62.0709"/>
<polygon fill="black" stroke="black" points="113.871,-63.4618 115.587,-53.0068 107.726,-60.1098 113.871,-63.4618"/>
<text text-anchor="middle" x="116.5" y="-74.8" font-family="Times,serif" font-size="14.00">true</text>
</g>
<!-- blk6&#45;&gt;blk3 -->
<g id="edge8" class="edge"><title>blk6&#45;&gt;blk3</title>
<path fill="none" stroke="black" d="M132.95,-53.0084C136.196,-82.277 139.478,-131.572 131.5,-173 130.973,-175.737 130.234,-178.533 129.367,-181.291"/>
<polygon fill="black" stroke="black" points="125.983,-180.355 125.826,-190.948 132.555,-182.765 125.983,-180.355"/>
<text text-anchor="middle" x="146.5" y="-118.3" font-family="Times,serif" font-size="14.00">true</text>
</g>
</g>
</svg>
